Patient4_TMGait_0pt6_02_left_07_EMG.mot
version=1
nRows=33
nColumns=33
inDegrees=no
endheader
time	1LAddLong	2LGlutMax	3LGlutMed	4LIliopsoas	5LSemiMemb	6LBicFemLong	7LRecFem	8LVastMed	9LVastLat	10LGasMed	11LTibAnt	12lTibPost	13LPeroneusLong	14LSol	15LExtDigLong	16LFlexDigLong	17RAddLong	18RGlutMax	19RGlutMed	20RIliopsoas	21RSemiMemb	22RBicFemLong	23RRecFem	24RVastMed	25RVastLat	26RGasMed	27RTibAnt	28RTibPost	29RPeroneusLong	30RSol	31RExtDigLong	32RFlexDigLong
9.79	0.006409	0.36972	-0.10956	0.010986	0.002594	-0.12634	0.032501	0.005341	0.045929	-0.03067	-0.050049	0.004883	0.007935	-0.043335	-0.044861	0	0.010376	-0.22232	-0.070343	0.039215	0.003357	0.2269	0.16815	-0.016785	0.062866	-0.021667	-0.015259	-0.016937	-0.79346	-0.36133	-0.003204	-0.005951
9.791	0.003815	0.39703	-0.088806	0.011902	-0.019073	-0.11093	0.023804	0.011749	0.035706	-0.036316	-0.021057	0.002441	-0.001831	-0.02655	-0.018768	-0.002899	-0.018921	-0.23499	0.21698	0.081177	0.031433	0.2803	0.20569	-0.003204	0.014496	-0.019226	-0.003662	-0.004272	-1.1168	-0.22995	-0.00351	0.003662
9.792	-0.004272	0.42145	-0.038147	-0.015411	0.000916	-0.10223	0.031891	0.00351	0.024109	-0.037842	-0.012665	0.00351	0.005646	-0.052338	-0.009308	-0.008545	-0.032501	-0.18417	0.11475	0.064087	0.061493	0.23773	0.16876	-0.049438	0	0.005798	0.058594	-0.013123	-0.32501	0.35812	0.000305	-0.003662
9.793	-0.010681	0.43839	-0.055695	-0.007019	-0.009766	-0.054321	0.036469	0.00885	0.025482	-0.028229	-0.007019	0.006714	-0.005493	-0.032501	-0.007629	-0.005493	-0.012817	-0.23956	-0.053558	0.054932	0.06012	0.13092	0.18036	-0.065918	0.046234	0.020142	0.062714	0.02121	0.37842	0.30426	-0.00473	-0.004425
9.794	-0.007782	0.51178	0.013885	0.002594	-0.027466	-0.063782	0.052032	0.011749	0.024109	-0.024872	0.000916	0.008087	0.065308	-0.0914	0.015259	-0.007629	-0.007172	-0.25818	-0.25574	0.043945	0.077057	-0.018463	0.084076	-0.045013	0.044708	0.035706	-0.063782	-0.02182	-0.082092	0.15564	-0.002441	-0.00824
9.795	0.001221	0.5423	0.012207	0.021667	-0.019684	-0.061646	0.039368	0.008087	0.0177	-0.027008	0.005493	0.006256	0.001678	-0.094147	0.00351	0.008087	-0.002136	-0.15976	-0.33066	-0.016785	0.069275	-0.13367	-0.046082	-0.056915	0.017853	0.035248	-0.059052	-0.2063	-0.24429	-0.026703	-0.005798	-0.018463
9.796	0.004883	0.56473	0.011749	0.008698	-0.028381	-0.04364	0.052032	0.005493	0.023346	-0.026093	0.006866	0.006561	-0.040741	-0.063171	0.00412	-0.001831	-0.004578	-0.19745	-0.39352	-0.033722	0.045013	-0.076294	-0.082703	0.076904	0.020905	0.038452	0.018463	-0.062866	-0.12116	-0.086517	-0.003967	-0.015869
9.797	0.012665	0.63065	0.019989	0.006409	0.02533	-0.068817	0.037689	0.007172	0.021057	-0.030212	0.013733	0.003662	-0.088654	-0.050507	0.006409	-0.000916	0.013885	-0.18158	-0.29007	-0.001831	0.046387	-0.039063	-0.046082	0.1532	-0.025482	0.052643	-0.001221	0.28153	0.44525	-0.089417	-0.001526	-0.004272
9.798	0.0177	0.69382	0.016937	0.021362	0.048981	-0.067596	0.045319	0.009766	0.009766	-0.017395	0.015564	0.007935	-0.009613	-0.042419	-0.021515	-0.00473	0.007324	-0.18662	-0.47257	0.027161	0.068054	-0.028076	-0.37857	0.13626	0.082092	0.049896	0.022125	0.088348	-0.71289	0.085602	-0.002899	0.004272
9.799	0.002136	0.74265	0.025177	0.020294	0.048065	-0.024719	0.051422	0.003357	0.015869	-0.031738	0.018158	0.002441	0.002747	-0.045929	-0.026703	0	0.011597	-0.24704	-0.51102	0.060577	0.088043	-0.010681	-0.29022	-0.009918	-0.030823	0.010376	0.089874	0.00885	-1.5887	0.067444	-0.005341	0.001984
9.8	0.00885	0.81955	0.007782	0.010834	0.029755	-0.005188	0.056152	0.005188	0.011597	-0.033569	0.016632	0.007324	-0.006104	-0.045013	-0.01358	-0.002441	-0.003967	-0.23926	-0.46463	0.071716	-0.017395	0.027161	-0.31845	0.054474	-0.042725	-0.072784	0.007172	-0.002289	0.12711	-0.16647	-0.001678	0.001221
9.801	-0.000153	0.87769	-0.003357	0.008698	0.003204	0.028534	0.059814	-0.001068	0.02182	-0.029602	0.019226	0.009003	-0.020447	-0.08728	-0.012665	0.005646	-0.01236	-0.22125	-0.53467	0.025635	-0.092621	0.016937	-0.22812	0.15167	-0.008545	-0.060425	-0.018616	-0.012512	2.4278	-0.043182	-0.001831	-0.000763
9.802	-0.005188	0.90134	-0.014343	0.011139	0.003204	0.0177	0.063934	0.006714	0.015106	-0.019226	0.026093	0.003967	-0.044556	-0.14618	-0.007324	0.010376	0.001678	-0.21851	-0.20218	0.021057	-0.045776	-0.026245	-0.033875	0.034332	-0.033722	-0.038605	0.030518	0.007019	1.5808	0.054016	-0.005341	0.000305
9.803	-0.010681	0.85129	-0.019379	0.011597	0.010376	-0.004578	0.071259	-0.000153	0.020905	-0.02655	0.020752	0.004272	-0.037537	-0.11276	-0.007019	0.011292	0.007782	-0.13977	-0.046997	0.042877	-0.12726	-0.021362	0.00946	0.033417	-0.044708	-0.00824	0.058746	0.00473	-0.38391	0.032806	0.009155	0.000153
9.804	0.003052	0.75394	0.006104	0.020447	-0.04364	0.009308	0.039825	0.00824	0.021057	-0.027466	0.017853	0.002899	-0.035706	-0.070801	0.002441	0.014191	0.002136	-0.1973	-0.10941	0.036469	-0.10727	-0.045013	0.012665	0.07431	-0.072327	-0.00061	0.004883	-0.009766	0.61905	0.004578	-0.003052	0.005341
9.805	0.004578	0.63034	-0.006561	0.019531	-0.079956	-0.010071	0.055389	0.008392	0.019226	-0.031433	0.026703	0.010681	-0.023804	-0.11993	-0.002441	0.003357	0.025482	-0.24506	-0.27573	-0.018005	-0.046844	-0.035706	0.027924	0.068817	0.023956	0.005951	0.015106	-0.006256	0.13199	-0.028687	0.00061	-0.002747
9.806	0.016174	0.52307	-0.019379	0.00351	-0.030975	-0.010986	0.071564	0.008545	0.016937	-0.028687	0.025635	0.015259	-0.028076	-0.10819	-0.002136	-0.001526	0.014648	-0.2214	-0.17212	0.031281	-0.046692	-0.013428	0.071564	0.019531	0.1178	0.016785	-0.045776	-0.007019	-1.3013	-0.11871	-0.002899	-0.005188
9.807	0.029602	0.39887	-0.007782	0.015869	-0.007477	-0.024872	0.064087	0.011749	0.019989	-0.03952	0.016479	0.006104	-0.03067	-0.13443	-0.006104	-0.002899	0.012817	-0.2504	-0.55725	0.058289	-0.031586	0.022125	-0.10178	0.030518	0.029602	0.002899	-0.022583	-0.010223	-2.2379	-0.080566	0.002594	-0.003357
9.808	0.014038	0.32059	-0.060272	0.028839	0.027466	-0.006866	0.083466	0.001984	0.007172	-0.033722	0.015106	0.009918	-0.037231	-0.1091	-0.007935	0.00824	0.009766	-0.29602	-0.34302	0.054016	-0.030823	0.041046	-0.23834	-0.009613	0.010529	-0.014496	-0.075531	-0.00946	0.95215	0.087585	-0.003662	-0.010529
9.809	0.022583	0.2858	-0.066833	0.011749	0.021057	0.034485	0.07019	0.00351	0.015106	-0.029602	-0.019989	0.010223	-0.0354	-0.081787	-0.011902	0.007782	0.006714	-0.28671	-0.36118	0.053558	-0.02655	0.056152	-0.12054	0.010071	0.1059	-0.020599	0.066071	-0.001373	0.89004	0.011902	-0.002441	-0.007019
9.81	0.019379	0.22247	-0.0383	0.013428	0.0354	0.011902	0.078888	0.010529	0.016937	-0.035706	-0.10086	0.006866	-0.033722	-0.065765	-0.007629	-0.001526	0.01297	-0.27603	-0.34149	0.006561	-0.01297	0.046997	-0.025177	-0.019989	0.25162	-0.019226	0.001678	-0.009308	0.11871	-0.11017	-0.006714	-0.006409
9.811	0.027161	0.15732	0.000763	-0.008392	0.022125	0.020294	0.079498	0.012817	0.022736	-0.039215	-0.089722	0.001984	-0.019531	-0.079956	-0.000458	-0.003357	-0.004578	-0.20645	-0.16266	-0.027618	0.016022	0.010529	-0.024261	-0.094604	0.31967	-0.044556	0.052948	-0.010681	0.22522	-0.018463	-0.003052	-0.010071
9.812	0.014801	0.079803	0.054169	0.005341	0.02594	0.12528	0.077972	0.016174	0.025024	-0.029755	-0.043182	0.005493	-0.053101	-0.086365	0.014648	0.004578	-0.010376	-0.25833	0.15503	-0.053406	0.01236	0.003815	-0.045471	0.022736	0.2858	-0.009308	0.097656	-0.011597	0.29404	0.12695	-0.000305	-0.011902
9.813	0.007935	-0.008392	0.072479	0.007477	0.019684	0.16861	0.075684	0.000305	0.004425	-0.02533	0.055542	0.006104	-0.055389	-0.057678	0.006866	-0.004425	-0.001068	-0.27603	-0.28137	-0.064392	-0.006409	0.013885	0.027618	0.045319	0.18448	0.017548	0.043793	-0.019836	0.52612	0.092926	-0.003967	-0.01297
9.814	0.019531	-0.096893	-0.0177	0.002441	-0.018463	0.1387	0.079193	0.018463	0.00824	-0.040436	0.19165	0.006256	-0.066833	-0.076141	0.002594	-0.000916	0.005951	-0.24185	-0.35355	0.012054	-0.021057	-0.006409	0.029144	0.033112	0.12878	0.034637	-0.20142	-0.024109	0.75607	0.083466	-0.002747	-0.00351
9.815	0.015869	-0.12528	-0.061035	0	-0.091858	0.13321	0.062561	0.003662	0.00885	-0.046997	0.18616	0.008698	-0.046997	-0.064392	-0.012207	0.00061	0.008087	-0.24796	-0.32608	0.080872	-0.020752	-0.028076	0.050659	0.066376	0.11169	0.032654	-0.037842	-0.017395	-1.122	0.044708	0.002289	-0.007019
9.816	0.012054	-0.14496	-0.12711	0.001831	-0.1088	0.1265	0.065613	0.010834	0.00351	-0.041809	0.11169	0.003204	-0.047455	-0.084686	-0.002747	-0.001678	0.013275	-0.25894	-0.3273	0.15305	-0.028381	-0.030823	0.049438	0.062561	0.057831	0.034485	0.080872	-0.019989	-0.74112	-0.011444	-0.001526	-0.005341
9.817	0.00946	-0.1503	-0.18204	0.003662	-0.019379	0.13611	0.073395	0.018463	0.007935	-0.034485	0.062714	0.004578	-0.067444	-0.081024	0.014343	-0.010986	0.008392	-0.17914	0.065613	0.09552	-0.028229	0.001068	0.06424	0.084839	0.024414	0.010223	0.030975	-0.057526	-0.65262	-0.12466	-0.000763	-0.008087
9.818	0.015869	-0.19623	-0.24536	0.041199	0.054169	0.2565	0.066528	0.011292	0.013123	-0.031433	0.029907	-0.003204	-0.052032	-0.091705	0.024261	-0.010223	0.016479	-0.23956	-0.11841	-0.00473	-0.029907	0.002289	0.090485	0.065613	-0.001068	-0.018463	0.012054	-0.063782	-0.31693	-0.034027	-0.001068	-0.001221
9.819	0.01297	-0.23514	-0.13794	0.025177	0.044098	0.080109	0.055847	-0.001526	0.018768	-0.045471	0.001373	0.001373	-0.045624	-0.092468	0.013733	0	0.004883	-0.26962	-0.36621	-0.089111	-0.025024	0.016174	0.069122	0.046692	-0.071259	-0.018616	-0.033417	0.014191	0.019836	-0.097961	-0.002441	-0.000305
9.82	0.014801	-0.2356	0.14862	0.001526	0.0354	0.002747	0.046692	0.011139	0.024261	-0.048523	-0.022583	0.013428	-0.034332	-0.072784	-0.01297	-0.00885	0.001221	-0.20233	-0.27161	-0.098419	-0.007629	0.034332	-0.17487	0.04715	-0.052795	-0.016785	-0.054932	0.002136	-0.10803	-0.2121	-0.005493	0
9.821	0.014648	-0.30823	0.15823	0.005646	0.064392	-0.021057	0.045013	0.005188	0.024109	-0.036926	-0.034943	0.000763	-0.043793	-0.079956	-0.019531	-0.002747	0.007629	-0.32074	-0.47333	-0.050354	-0.010223	0.033417	-0.3743	0.031281	0.01358	-0.012665	-0.052338	0.103	0.22049	-0.034027	-0.00061	0.003967
9.822	-0.000916	-0.34332	0.1564	0.01236	0.019684	-0.056763	0.058594	0.015411	0.011902	-0.019836	0.01709	0.003052	-0.05661	-0.084534	0.004578	-0.002899	0.008392	-0.27802	-0.43106	-0.025635	-0.015106	0.04364	-0.30182	-0.066071	0.063477	-0.02121	-0.039063	0.048981	0.035706	0.21255	-0.000458	-0.007477
